<svg xmlns="http://www.w3.org/2000/svg" viewBox="0 0 260.86 260.86"><defs><style>.cls-1{fill:#0f0f0f;}.cls-2{fill:#007b00;}.cls-3{fill:#fbfc00;}.cls-4{fill:#ff625e;}.cls-5{fill:#ff8f00;}.cls-6{fill:none;stroke:#00b9fe;stroke-miterlimit:10;stroke-width:5px;}.cls-7{font-size:10px;font-family:MyriadPro-Regular, Myriad Pro;}</style></defs><title>Recurso 1</title><g id="Capa_2" data-name="Capa 2"><g id="Capa_1-2" data-name="Capa 1"><path class="cls-1" d="M170.6,167.22c-.19-1-.46-1.94-.71-2.91-2.27-9.08-4.56-18.15-6.81-27.24-.28-1.15-1.14-2.4-.05-3.53,1.73-1.8,1.36-3.88,1-6q-1.33-7.17-2.63-14.36c-2.08-11.29-2.07-11.25-13.19-8.5-1.9.48-3.27,1.42-3.76,3.22-1.57,5.74-4.47,9.75-11.09,10-2,.08-2.83,1.92-2.42,3.95s1.77,3,3.54,2.5c4.85-1.24,10.74-.28,13.22-6.06,4.12,9.07,3.08,17.21-4.16,24.3a7.93,7.93,0,0,0-2.69,4.79Q140,157.69,139.38,168c-.13,2.07.66,3.81,3,4,2.52.2,3.55-1.4,3.72-3.71.29-4,1-8,.78-11.94-.56-8,4.57-13,9.2-19.29.52,2.19.83,3.51,1.16,4.83q3.35,13.44,6.7,26.88c.55,2.19,1.79,3.73,4.24,3.18S171,169.42,170.6,167.22Z"/><path class="cls-1" d="M126.16,126.13a3.93,3.93,0,0,0-.46,3.06c.41,3.15-.87,4.06-4,3.94-6-.24-12,0-18,0H90.1c3.2,9.23,6.15,17.57,9,26,.62,1.85,1.71,2.1,3.38,2.08,6.12-.06,12.24.06,18.37,0,2.69,0,5.43.44,8.5-.42V129.33c3.82-.47,3.82-.47,3.69-3.3A24,24,0,0,0,126.16,126.13Zm-30.5,13.41c-.17-1.77,1.27-1.49,2.33-1.49q12.67,0,25.36,0c1.05,0,2.53-.27,2.38,1.46-.12,1.41-1.44,1.08-2.36,1.08-4.23,0-8.46,0-12.69,0s-8.45,0-12.68,0C97.09,140.6,95.8,141,95.66,139.54Zm.86,4.6A3,3,0,0,1,99,143.05q12.35-.06,24.69,0c1,0,2.11.1,2,1.52-.07,1.21-1.09,1.17-2,1.18l-24.69,0A2.75,2.75,0,0,1,96.52,144.14Zm2.78,5.54c-.15-1.76,1.43-1.39,2.44-1.39,7.22,0,14.44,0,21.66,0,.95,0,2.22-.16,2.29,1.24.09,1.78-1.38,1.39-2.41,1.4-3.61,0-7.22,0-10.83,0v0c-3.49,0-7,0-10.46,0C100.94,150.9,99.44,151.25,99.3,149.68Zm24.34,6.54c-7.31,0-14.62,0-22.09,0-.75-2.44.39-2.82,2-2.82,6.71,0,13.41,0,20.12.08,1,0,2.14-.14,2.12,1.38S124.59,156.22,123.64,156.22Z"/><path class="cls-1" d="M147.42,102.38a6.77,6.77,0,1,0,.26-13.54,6.88,6.88,0,0,0-6.74,6.67A6.8,6.8,0,0,0,147.42,102.38Z"/><path class="cls-1" d="M103.63,162.69a4.16,4.16,0,0,0-4.51,4.45c0,2.85,1.76,4.22,4.55,4.59,2.65-.29,4.45-1.75,4.43-4.52A4.19,4.19,0,0,0,103.63,162.69Z"/><path class="cls-1" d="M125.08,162.7a4.17,4.17,0,0,0-4.55,4.42,4.12,4.12,0,0,0,4.44,4.5c2.67,0,4.38-1.54,4.62-4.75C129.26,164.52,127.87,162.74,125.08,162.7Z"/><polygon class="cls-2" points="127 224.35 115.43 231.03 115.43 231.29 115.43 244.4 115.43 260.86 138.57 260.86 138.57 244.4 138.57 231.29 138.57 231.03 127 224.35"/><polygon class="cls-2" points="163.2 218.51 155.07 229.12 155.17 229.35 160.18 241.46 166.48 256.67 187.86 247.81 181.56 232.6 176.55 220.49 176.45 220.26 163.2 218.51"/><polygon class="cls-2" points="194.42 199.27 190.96 212.17 191.14 212.35 200.41 221.62 212.05 233.26 228.41 216.9 216.77 205.26 207.5 195.99 207.32 195.81 194.42 199.27"/><polygon class="cls-3" points="215.89 169.54 217.63 182.79 217.87 182.88 229.98 187.9 245.19 194.2 254.04 172.82 238.84 166.52 226.72 161.5 226.49 161.41 215.89 169.54"/><polygon class="cls-3" points="224.35 133.86 231.03 145.43 231.29 145.43 244.4 145.43 260.86 145.43 260.86 122.29 244.4 122.29 231.29 122.29 231.03 122.29 224.35 133.86"/><polygon class="cls-3" points="218.51 97.65 229.12 105.79 229.35 105.69 241.46 100.67 256.67 94.37 247.81 72.99 232.6 79.29 220.49 84.31 220.26 84.41 218.51 97.65"/><polygon class="cls-4" points="199.27 66.44 212.17 69.9 212.35 69.72 221.62 60.45 233.26 48.81 216.9 32.44 205.26 44.08 195.99 53.35 195.81 53.53 199.27 66.44"/><polygon class="cls-4" points="169.54 44.97 182.79 43.22 182.88 42.99 187.9 30.88 194.2 15.67 172.82 6.81 166.52 22.02 161.5 34.13 161.41 34.37 169.54 44.97"/><polygon class="cls-4" points="133.86 36.5 145.43 29.82 145.43 29.57 145.43 16.46 145.43 0 122.29 0 122.29 16.46 122.29 29.57 122.29 29.82 133.86 36.5"/><polygon class="cls-4" points="97.65 42.34 105.79 31.74 105.69 31.51 100.67 19.4 94.37 4.19 72.99 13.04 79.29 28.25 84.31 40.37 84.41 40.6 97.65 42.34"/><polygon class="cls-4" points="66.44 61.59 69.9 48.68 69.72 48.51 60.45 39.23 48.81 27.59 32.44 43.96 44.08 55.6 53.35 64.87 53.53 65.05 66.44 61.59"/><polygon class="cls-5" points="44.97 91.32 43.22 78.07 42.99 77.97 30.88 72.96 15.67 66.66 6.81 88.04 22.02 94.34 34.13 99.36 34.37 99.45 44.97 91.32"/><polygon class="cls-5" points="36.5 127 29.82 115.43 29.57 115.43 16.46 115.43 0 115.43 0 138.57 16.46 138.57 29.57 138.57 29.82 138.57 36.5 127"/><polygon class="cls-5" points="42.34 163.2 31.74 155.07 31.51 155.17 19.4 160.18 4.19 166.48 13.04 187.86 28.25 181.56 40.37 176.55 40.6 176.45 42.34 163.2"/><polygon class="cls-2" points="61.59 194.42 48.68 190.96 48.51 191.14 39.23 200.41 27.59 212.05 43.96 228.41 55.6 216.77 64.87 207.5 65.05 207.32 61.59 194.42"/><polygon class="cls-2" points="91.32 215.89 78.07 217.63 77.97 217.87 72.96 229.98 66.66 245.19 88.04 254.04 94.34 238.84 99.36 226.72 99.45 226.49 91.32 215.89"/><circle class="cls-6" cx="130.43" cy="130.43" r="86.71"/><text class="cls-7" transform="translate(62.89 105.56) rotate(-65.61)">S</text><text class="cls-7" transform="translate(65.31 100.3) rotate(-61.05)">E</text><text class="cls-7" transform="matrix(0.55, -0.83, 0.83, 0.55, 68.14, 95.24)">R</text><text class="cls-7" transform="matrix(0.63, -0.78, 0.78, 0.63, 71.73, 89.93)">V</text><text class="cls-7" transform="translate(75.84 84.94) rotate(-47.43)">I</text><text class="cls-7" transform="translate(78.04 82.51) rotate(-43.55)">C</text><text class="cls-7" transform="translate(82.97 77.95) rotate(-39.64)">I</text><text class="cls-7" transform="translate(85.45 75.83) rotate(-35.33)">O</text><text class="cls-7" transform="translate(167.9 70.69) rotate(33.16)">C</text><text class="cls-7" transform="matrix(0.78, 0.62, -0.62, 0.78, 173.48, 74.38)">A</text><text class="cls-7" transform="matrix(0.73, 0.69, -0.69, 0.73, 178.91, 78.79)">L</text><text class="cls-7" transform="translate(182.93 82.69) rotate(46.96)">I</text><text class="cls-7" transform="translate(185.21 85.07) rotate(51.19)">D</text><text class="cls-7" transform="matrix(0.55, 0.84, -0.84, 0.55, 189.79, 90.83)">A</text><text class="cls-7" transform="translate(193.59 96.67) rotate(62.37)">D</text><text class="cls-7" transform="translate(110.85 203.82) rotate(13.42)">P</text><text class="cls-7" transform="matrix(0.99, 0.14, -0.14, 0.99, 117.36, 205.32)">R</text><text class="cls-7" transform="translate(124.06 206.2) rotate(3.02)">E</text><text class="cls-7" transform="translate(130.34 206.49) rotate(-2.18)">C</text><text class="cls-7" transform="matrix(0.99, -0.11, 0.11, 0.99, 137.42, 206.11)">I</text><text class="cls-7" transform="matrix(0.98, -0.19, 0.19, 0.98, 141.13, 205.73)">O</text></g></g></svg>