<svg height="480pt" viewBox="0 0 480 480" width="480pt" xmlns="http://www.w3.org/2000/svg"><path d="m432 240c0 106.039062-85.960938 192-192 192s-192-85.960938-192-192 85.960938-192 192-192 192 85.960938 192 192zm0 0" fill="#8690fa"/><path d="m336 176h-48l-16-32h-64l-16 32h-48c-8.835938 0-16 7.164062-16 16v128c0 8.835938 7.164062 16 16 16h192c8.835938 0 16-7.164062 16-16v-128c0-8.835938-7.164062-16-16-16zm0 0" fill="#cfd2fc"/><path d="m288 256c0 26.507812-21.492188 48-48 48s-48-21.492188-48-48 21.492188-48 48-48 48 21.492188 48 48zm0 0" fill="#5153ff"/><path d="m240 0c-132.546875 0-240 107.453125-240 240s107.453125 240 240 240 240-107.453125 240-240c-.148438-132.484375-107.515625-239.851562-240-240zm0 464c-123.710938 0-224-100.289062-224-224s100.289062-224 224-224 224 100.289062 224 224c-.140625 123.652344-100.347656 223.859375-224 224zm0 0"/><path d="m240 200c-30.929688 0-56 25.070312-56 56s25.070312 56 56 56 56-25.070312 56-56c-.035156-30.914062-25.085938-55.964844-56-56zm0 96c-22.089844 0-40-17.910156-40-40s17.910156-40 40-40 40 17.910156 40 40c-.027344 22.082031-17.917969 39.972656-40 40zm0 0"/><path d="m336 168h-43.054688l-13.746093-27.574219c-1.359375-2.726562-4.152344-4.441406-7.199219-4.425781h-64c-3.03125 0-5.804688 1.710938-7.160156 4.425781l-13.785156 27.574219h-43.054688c-13.253906 0-24 10.746094-24 24v128c0 13.253906 10.746094 24 24 24h192c13.253906 0 24-10.746094 24-24v-128c0-13.253906-10.746094-24-24-24zm8 152c0 4.417969-3.582031 8-8 8h-192c-4.417969 0-8-3.582031-8-8v-128c0-4.417969 3.582031-8 8-8h48c3.03125 0 5.804688-1.710938 7.160156-4.425781l13.785156-27.574219h54.109376l13.746093 27.574219c1.359375 2.726562 4.152344 4.441406 7.199219 4.425781h48c4.417969 0 8 3.582031 8 8zm0 0"/></svg>