<svg height="480pt" viewBox="0 0 480 480" width="480pt" xmlns="http://www.w3.org/2000/svg"><path d="m432 240c0 106.039062-85.960938 192-192 192s-192-85.960938-192-192 85.960938-192 192-192 192 85.960938 192 192zm0 0" fill="#8690fa"/><path d="m152 192h176l-16 160h-144zm0 0" fill="#cfd2fc"/><path d="m136 160h208v32h-208zm0 0" fill="#5153ff"/><path d="m240 0c-132.546875 0-240 107.453125-240 240s107.453125 240 240 240 240-107.453125 240-240c-.148438-132.484375-107.515625-239.851562-240-240zm0 464c-123.710938 0-224-100.289062-224-224s100.289062-224 224-224 224 100.289062 224 224c-.140625 123.652344-100.347656 223.859375-224 224zm0 0"/><path d="m344 152h-81.472656c.949218-2.5625 1.445312-5.269531 1.472656-8 0-13.253906-10.746094-24-24-24s-24 10.746094-24 24c.027344 2.730469.523438 5.4375 1.472656 8h-81.472656c-4.417969 0-8 3.582031-8 8v32c0 4.417969 3.582031 8 8 8h8.800781l15.277344 152.800781c.414063 4.101563 3.878906 7.21875 8 7.199219h143.921875c4.125.019531 7.585938-3.097656 8-7.199219l15.238281-152.800781h8.761719c4.417969 0 8-3.582031 8-8v-32c0-4.417969-3.582031-8-8-8zm-112-8c0-4.417969 3.582031-8 8-8s8 3.582031 8 8-3.582031 8-8 8-8-3.582031-8-8zm72.800781 200h-129.5625l-14.398437-144h158.359375zm31.199219-160h-192v-16h192zm0 0"/><path d="m240 312c4.417969 0 8-3.582031 8-8v-64c0-4.417969-3.582031-8-8-8s-8 3.582031-8 8v64c0 4.417969 3.582031 8 8 8zm0 0"/><path d="m271.007812 311.9375c.328126.039062.660157.058594.992188.0625 4.03125-.003906 7.429688-3.007812 7.929688-7.007812l8-64c.425781-2.871094-.734376-5.75-3.035157-7.519532-2.300781-1.769531-5.382812-2.15625-8.046875-1.007812-2.664062 1.152344-4.5 3.65625-4.792968 6.542968l-8 64c-.546876 4.386719 2.566406 8.382813 6.953124 8.929688zm0 0"/><path d="m208 312c.335938 0 .667969-.023438 1-.0625 4.382812-.550781 7.492188-4.546875 6.945312-8.929688l-8-64c-.640624-4.296874-4.59375-7.296874-8.90625-6.757812s-7.402343 4.417969-6.96875 8.742188l8 64c.5 4 3.898438 7.003906 7.929688 7.007812zm0 0"/></svg>