<svg height="480pt" viewBox="0 0 480 480" width="480pt" xmlns="http://www.w3.org/2000/svg"><path d="m432 240c0 106.039062-85.960938 192-192 192s-192-85.960938-192-192 85.960938-192 192-192 192 85.960938 192 192zm0 0" fill="#8690fa"/><path d="m136 144h208v192h-208zm0 0" fill="#cfd2fc"/><path d="m200 224 40 48 32-16 40 48h-144zm0 0" fill="#5153ff"/><path d="m312 192c0 8.835938-7.164062 16-16 16s-16-7.164062-16-16 7.164062-16 16-16 16 7.164062 16 16zm0 0" fill="#5153ff"/><path d="m240 0c-132.546875 0-240 107.453125-240 240s107.453125 240 240 240 240-107.453125 240-240c-.148438-132.484375-107.515625-239.851562-240-240zm0 464c-123.710938 0-224-100.289062-224-224s100.289062-224 224-224 224 100.289062 224 224c-.140625 123.652344-100.347656 223.859375-224 224zm0 0"/><path d="m344 136h-208c-4.417969 0-8 3.582031-8 8v192c0 4.417969 3.582031 8 8 8h208c4.417969 0 8-3.582031 8-8v-192c0-4.417969-3.582031-8-8-8zm-8 192h-192v-176h192zm0 0"/><path d="m168 312h144c3.105469 0 5.929688-1.792969 7.25-4.605469 1.316406-2.808593.890625-6.128906-1.097656-8.515625l-40-48c-2.375-2.855468-6.40625-3.699218-9.726563-2.039062l-26.335937 13.167968-35.9375-43.128906c-1.800782-2.175781-4.617188-3.242187-7.410156-2.804687-2.792969.441406-5.144532 2.324219-6.191407 4.949219l-32 80c-.988281 2.46875-.6875 5.269531.808594 7.46875 1.492187 2.199218 3.980469 3.515624 6.640625 3.507812zm34.449219-72.566406 31.398437 37.6875c2.375 2.855468 6.40625 3.699218 9.726563 2.039062l26.335937-13.167968 25.011719 30.007812h-115.105469zm0 0"/><path d="m296 216c13.253906 0 24-10.746094 24-24s-10.746094-24-24-24-24 10.746094-24 24 10.746094 24 24 24zm0-32c4.417969 0 8 3.582031 8 8s-3.582031 8-8 8-8-3.582031-8-8 3.582031-8 8-8zm0 0"/></svg>